<?xml version="1.0" encoding="UTF-8" standalone="no"?>
<!-- Created with Inkscape (http://www.inkscape.org/) -->

<svg
   width="80.227089mm"
   height="65.327835mm"
   viewBox="0 0 80.227089 65.327835"
   version="1.1"
   id="svg1"
   sodipodi:docname="ACMLogo1_white.svg"
   inkscape:version="1.3.2 (091e20e, 2023-11-25, custom)"
   inkscape:export-filename="ACMLogo1_white.png"
   inkscape:export-xdpi="253.28"
   inkscape:export-ydpi="253.28"
   xmlns:inkscape="http://www.inkscape.org/namespaces/inkscape"
   xmlns:sodipodi="http://sodipodi.sourceforge.net/DTD/sodipodi-0.dtd"
   xmlns="http://www.w3.org/2000/svg"
   xmlns:svg="http://www.w3.org/2000/svg">
  <sodipodi:namedview
     id="namedview1"
     pagecolor="#505050"
     bordercolor="#ffffff"
     borderopacity="1"
     inkscape:showpageshadow="0"
     inkscape:pageopacity="0"
     inkscape:pagecheckerboard="1"
     inkscape:deskcolor="#505050"
     inkscape:document-units="mm"
     inkscape:zoom="1.6625602"
     inkscape:cx="105.25935"
     inkscape:cy="133.82974"
     inkscape:window-width="1920"
     inkscape:window-height="1017"
     inkscape:window-x="-8"
     inkscape:window-y="-8"
     inkscape:window-maximized="1"
     inkscape:current-layer="svg1"
     inkscape:export-bgcolor="#00000000" />
  <defs
     id="defs1" />
  <path
     id="rect1"
     style="fill:#ffffff;fill-opacity:1;stroke:#ffffff;stroke-width:0;stroke-linecap:butt;stroke-dasharray:none;stroke-dashoffset:0;stroke-opacity:0.112805;paint-order:normal"
     d="M 31.776631,0 C 30.418377,7.0710833e-8 29.060003,0.52038003 28.019238,1.561145 L 1.5779585,28.002426 c -2.08153009,2.08153 -2.12624045,5.478949 0,7.514787 L 14.340429,47.737053 2.4713921,34.83816 C 0.67923421,32.731405 1.5104241,30.185076 3.466215,28.229285 L 28.246098,3.4494017 c 1.955791,-1.9557915 5.10476,-1.9557916 7.060551,5e-7 l 27.42623,27.4257138 c 1.955794,1.955793 1.884601,5.036588 1e-6,7.061068 L 37.526113,65.278866 c 0.05515,-0.0033 3.095588,0.04897 3.095588,0.04897 l 23.99944,-27.16479 c 1.949028,-2.206089 2.081529,-5.433258 -2e-6,-7.514789 L 35.534025,1.5611454 C 34.49326,0.52038039 33.134886,-1.4142117e-7 31.776631,0 Z" />
  <path
     id="rect2"
     style="fill:#ffffff;fill-opacity:1;stroke:#ffffff;stroke-width:0.45;stroke-linecap:butt;stroke-dasharray:none;stroke-dashoffset:0;stroke-opacity:1;paint-order:normal"
     d="m 21.449614,19.705774 c -0.310022,10e-7 -0.620275,0.118497 -0.85783,0.356051 L 4.5059455,36.148182 c -0.4751093,0.475109 -0.47511,1.240031 -7e-7,1.715141 L 17.677231,51.034609 c 0.475112,0.475112 1.240033,0.475111 1.715142,10e-7 l 16.08636,-16.085836 c 0.47511,-0.47511 0.475111,-1.24003 -10e-7,-1.715143 L 22.307442,20.061825 c -0.237555,-0.237554 -0.547807,-0.35605 -0.857828,-0.356051 z m 0.93741,6.99854 5.091681,5.092198 -0.866097,0.866097 -4.078823,-4.078823 1.688269,2.765723 -0.801501,0.801501 -2.772958,-1.681551 4.079336,4.079336 -0.866609,0.8661 -5.091682,-5.091681 1.200443,-1.200443 2.841171,1.626774 -1.630392,-2.837553 z m -4.319634,4.627108 1.118796,1.118278 c -0.331953,0.01364 -0.616202,0.06615 -0.852662,0.157096 -0.236458,0.0864 -0.441118,0.215809 -0.613916,0.388606 -0.36833,0.368331 -0.500429,0.793879 -0.395841,1.275892 0.104588,0.477465 0.444344,1.003483 1.019576,1.578715 0.572958,0.572958 1.099492,0.912715 1.579232,1.019575 0.479741,0.102317 0.903942,-0.03061 1.272272,-0.398943 0.172797,-0.172797 0.303558,-0.376107 0.392225,-0.610297 0.08867,-0.238734 0.139841,-0.524323 0.15348,-0.856278 l 1.118281,1.118798 c -0.07731,0.241003 -0.182634,0.469747 -0.316777,0.685745 -0.134129,0.216013 -0.298184,0.420655 -0.491444,0.613915 -0.686641,0.686641 -1.436543,0.984433 -2.250509,0.893486 -0.813965,-0.09095 -1.648834,-0.564147 -2.503724,-1.419037 -0.857164,-0.857164 -1.33119,-1.692342 -1.422136,-2.506307 -0.09094,-0.813965 0.206845,-1.564384 0.893486,-2.251025 0.19326,-0.19326 0.399263,-0.358124 0.617535,-0.494541 0.218272,-0.136417 0.44567,-0.24092 0.682129,-0.313676 z m -5.370214,5.063256 6.466274,3.717089 -1.00614,1.00614 -1.571999,-0.944648 -1.347205,1.347205 0.951366,1.565281 -1.00614,1.00614 -3.717089,-6.466274 z m 0.30334,1.537891 1.609721,2.557983 0.95188,-0.951362 z" />
  <rect
     style="fill:#ffffff;fill-opacity:1;stroke:#ffffff;stroke-width:0.4;stroke-linecap:butt;stroke-dasharray:none;stroke-dashoffset:0;stroke-opacity:1;paint-order:normal"
     id="rect3"
     width="9.9482327"
     height="3.436661"
     x="47.00861"
     y="-18.529911"
     ry="0.11587441"
     rx="0"
     transform="rotate(45)" />
  <rect
     style="fill:#ffffff;fill-opacity:1;stroke:#ffffff;stroke-width:0.281458;stroke-linecap:butt;stroke-dasharray:none;stroke-dashoffset:0;stroke-opacity:1;paint-order:normal"
     id="rect3-9"
     width="7.0000358"
     height="2.4181933"
     x="12.540492"
     y="-72.629616"
     ry="0.081534587"
     rx="0"
     transform="rotate(135)" />
  <rect
     style="fill:#ffffff;fill-opacity:1;stroke:#ffffff;stroke-width:0.181439;stroke-linecap:butt;stroke-dasharray:none;stroke-dashoffset:0;stroke-opacity:1;paint-order:normal"
     id="rect3-9-5"
     width="4.5124946"
     height="1.5588613"
     x="52.542858"
     y="-14.015046"
     ry="0.052560356"
     rx="0"
     transform="rotate(45)" />
  <circle
     style="fill:#f9f9f9;fill-opacity:0;stroke:#ffffff;stroke-width:0.9;stroke-linecap:butt;stroke-dasharray:none;stroke-dashoffset:0;stroke-opacity:1;paint-order:normal"
     id="path25"
     cx="77.977089"
     cy="46.524582"
     r="1.8" />
  <circle
     style="fill:#f9f9f9;fill-opacity:0;stroke:#ffffff;stroke-width:0.9;stroke-linecap:butt;stroke-dasharray:none;stroke-dashoffset:0;stroke-opacity:1;paint-order:normal"
     id="path25-9"
     cx="45.009697"
     cy="46.298744"
     r="1.8" />
  <circle
     style="fill:#f9f9f9;fill-opacity:0;stroke:#ffffff;stroke-width:0.9;stroke-linecap:butt;stroke-dasharray:none;stroke-dashoffset:0;stroke-opacity:1;paint-order:normal"
     id="path25-9-2"
     cx="41.515747"
     cy="49.442322"
     r="1.8" />
  <path
     style="fill:none;fill-opacity:1;stroke:#ffffff;stroke-width:1.1;stroke-linecap:butt;stroke-dasharray:none;stroke-dashoffset:0;stroke-opacity:1;paint-order:normal"
     d="m 46.023408,47.531082 9.336651,9.33665 17.022211,-4.56109 4.49232,-4.49232"
     id="path26" />
  <path
     style="fill:none;fill-opacity:1;stroke:#ffffff;stroke-width:1.1;stroke-linecap:butt;stroke-dasharray:none;stroke-dashoffset:0;stroke-opacity:1;paint-order:normal"
     d="m 42.919689,50.647712 9.336646,9.33665 17.022215,-4.56109 4.49232,-4.49232"
     id="path26-8" />
  <rect
     style="fill:none;fill-opacity:1;stroke:#ffffff;stroke-width:0.6682;stroke-linecap:butt;stroke-dasharray:none;stroke-dashoffset:0;stroke-opacity:1;paint-order:normal"
     id="rect26"
     width="1.1653957"
     height="0.27192569"
     x="0.99589294"
     y="32.576786"
     ry="0"
     rx="0"
     transform="rotate(-45)" />
  <rect
     style="fill:none;fill-opacity:1;stroke:#ffffff;stroke-width:0.6682;stroke-linecap:butt;stroke-dasharray:none;stroke-dashoffset:0;stroke-opacity:1;paint-order:normal"
     id="rect26-4"
     width="1.1653957"
     height="0.27192569"
     x="1.0106329"
     y="34.739819"
     ry="0"
     rx="0"
     transform="rotate(-45)" />
  <rect
     style="fill:none;fill-opacity:1;stroke:#ffffff;stroke-width:0.6682;stroke-linecap:butt;stroke-dasharray:none;stroke-dashoffset:0;stroke-opacity:1;paint-order:normal"
     id="rect26-2"
     width="1.1653957"
     height="0.27192569"
     x="0.9432587"
     y="36.881336"
     ry="0"
     rx="0"
     transform="rotate(-45)" />
  <rect
     style="fill:none;fill-opacity:1;stroke:#ffffff;stroke-width:0.6682;stroke-linecap:butt;stroke-dasharray:none;stroke-dashoffset:0;stroke-opacity:1;paint-order:normal"
     id="rect26-7"
     width="1.1653957"
     height="0.27192569"
     x="0.94905895"
     y="38.913235"
     ry="0"
     rx="0"
     transform="rotate(-45)" />
  <rect
     style="fill:none;fill-opacity:1;stroke:#ffffff;stroke-width:0.6682;stroke-linecap:butt;stroke-dasharray:none;stroke-dashoffset:0;stroke-opacity:1;paint-order:normal"
     id="rect26-6"
     width="1.1653957"
     height="0.27192569"
     x="0.99454445"
     y="41.079746"
     ry="0"
     rx="0"
     transform="rotate(-45)" />
  <rect
     style="fill:none;fill-opacity:1;stroke:#ffffff;stroke-width:0.6682;stroke-linecap:butt;stroke-dasharray:none;stroke-dashoffset:0;stroke-opacity:1;paint-order:normal"
     id="rect26-6-2"
     width="1.1653957"
     height="0.27192569"
     x="46.775936"
     y="-17.81579"
     ry="0"
     rx="0"
     transform="rotate(45)" />
  <rect
     style="fill:none;fill-opacity:1;stroke:#ffffff;stroke-width:0.6682;stroke-linecap:butt;stroke-dasharray:none;stroke-dashoffset:0;stroke-opacity:1;paint-order:normal"
     id="rect26-6-2-4"
     width="1.1653957"
     height="0.27192569"
     x="46.764561"
     y="-16.261021"
     ry="0"
     rx="0"
     transform="rotate(45)" />
  <rect
     style="fill:none;fill-opacity:1;stroke:#ffffff;stroke-width:0.6682;stroke-linecap:butt;stroke-dasharray:none;stroke-dashoffset:0;stroke-opacity:1;paint-order:normal"
     id="rect26-6-2-6"
     width="1.1653957"
     height="0.27192569"
     x="56.090885"
     y="-17.084324"
     ry="0"
     rx="0"
     transform="rotate(45)" />
  <rect
     style="fill:none;fill-opacity:1;stroke:#ffffff;stroke-width:0.6682;stroke-linecap:butt;stroke-dasharray:none;stroke-dashoffset:0;stroke-opacity:1;paint-order:normal"
     id="rect26-6-2-2"
     width="1.1653957"
     height="0.27192569"
     x="69.836021"
     y="17.216303"
     ry="0"
     rx="0"
     transform="rotate(45)" />
  <rect
     style="fill:none;fill-opacity:1;stroke:#ffffff;stroke-width:0.6682;stroke-linecap:butt;stroke-dasharray:none;stroke-dashoffset:0;stroke-opacity:1;paint-order:normal"
     id="rect26-6-2-8"
     width="1.1653957"
     height="0.27192569"
     x="69.87989"
     y="14.598864"
     ry="0"
     rx="0"
     transform="rotate(45)" />
  <path
     style="fill:none;fill-opacity:1;stroke:#ffffff;stroke-width:0.6;stroke-linecap:butt;stroke-dasharray:none;stroke-dashoffset:0;stroke-opacity:1;paint-order:normal"
     d="m 44.376703,21.583502 -2.273375,-2.287781 -3.197483,0.03198 -8.337439,8.385399"
     id="path27" />
  <path
     style="fill:none;fill-opacity:1;stroke:#ffffff;stroke-width:0.6;stroke-linecap:butt;stroke-dasharray:none;stroke-dashoffset:0;stroke-opacity:1;paint-order:normal"
     d="m 45.426679,20.379804 -8.424208,-8.637781 -2.473975,-0.03585 -9.965332,10.013292"
     id="path27-9" />
  <path
     style="fill:none;fill-opacity:1;stroke:#ffffff;stroke-width:0.6;stroke-linecap:butt;stroke-dasharray:none;stroke-dashoffset:0;stroke-opacity:1;paint-order:normal"
     d="m 26.171939,23.154035 3.03761,-3.037607"
     id="path28" />
  <path
     style="fill:none;fill-opacity:1;stroke:#ffffff;stroke-width:0.6;stroke-linecap:butt;stroke-dasharray:none;stroke-dashoffset:0;stroke-opacity:1;paint-order:normal"
     d="m 27.557942,24.749011 8.505306,-8.505307 h 2.078365"
     id="path29" />
  <path
     style="fill:none;fill-opacity:1;stroke:#ffffff;stroke-width:0.6;stroke-linecap:butt;stroke-dasharray:none;stroke-dashoffset:0;stroke-opacity:1;paint-order:normal"
     d="m 29.076746,26.075968 5.547635,-5.547636"
     id="path30" />
  <path
     style="fill:none;fill-opacity:1;stroke:#ffffff;stroke-width:0.6;stroke-linecap:butt;stroke-dasharray:none;stroke-dashoffset:0;stroke-opacity:1;paint-order:normal"
     d="m 52.55427,28.633954 1.083145,1.083149 -2.518017,2.518017 -1.374917,-1.374917"
     id="path31" />
  <circle
     style="fill:none;fill-opacity:1;stroke:#ffffff;stroke-width:0.9;stroke-linecap:butt;stroke-dasharray:none;stroke-dashoffset:0;stroke-opacity:1;paint-order:normal"
     id="path32"
     cx="29.417587"
     cy="19.959957"
     r="0.30000001" />
  <circle
     style="fill:none;fill-opacity:1;stroke:#ffffff;stroke-width:0.9;stroke-linecap:butt;stroke-dasharray:none;stroke-dashoffset:0;stroke-opacity:1;paint-order:normal"
     id="path32-2"
     cx="34.867096"
     cy="20.309788"
     r="0.30000001" />
  <circle
     style="fill:none;fill-opacity:1;stroke:#ffffff;stroke-width:0.9;stroke-linecap:butt;stroke-dasharray:none;stroke-dashoffset:0;stroke-opacity:1;paint-order:normal"
     id="path32-2-0"
     cx="36.646881"
     cy="61.216293"
     r="0.30000001" />
  <circle
     style="fill:none;fill-opacity:1;stroke:#ffffff;stroke-width:0.9;stroke-linecap:butt;stroke-dasharray:none;stroke-dashoffset:0;stroke-opacity:1;paint-order:normal"
     id="path32-2-2"
     cx="38.402046"
     cy="59.272705"
     r="0.30000001" />
  <circle
     style="fill:none;fill-opacity:1;stroke:#ffffff;stroke-width:0.9;stroke-linecap:butt;stroke-dasharray:none;stroke-dashoffset:0;stroke-opacity:1;paint-order:normal"
     id="path32-26"
     cx="38.433701"
     cy="16.26482"
     r="0.30000001" />
  <path
     style="fill:none;fill-opacity:1;stroke:#ffffff;stroke-width:0.153817;stroke-linecap:butt;stroke-dasharray:none;stroke-dashoffset:0;stroke-opacity:1;paint-order:normal"
     d="m 70.356418,53.172571 c -5.034942,1.343948 -10.068126,2.698731 -15.102962,4.045267 -1.327899,-1.313555 -2.632882,-2.659028 -3.974952,-3.952811 -0.337857,-0.186635 -0.518475,0.292415 -0.734301,0.471956 -0.585321,0.675769 -1.203848,1.330632 -1.768501,2.019419 -0.154559,0.341802 0.308086,0.529849 0.475504,0.768773 1.005713,0.981456 1.958054,2.021025 3.01045,2.952832 0.305128,0.253963 0.689385,-0.05529 1.019818,-0.08673 5.244222,-1.40947 10.490039,-2.812923 15.735324,-4.218901 0.468241,-0.357629 0.850381,-0.82891 1.274971,-1.241144 0.173974,-0.181544 0.509945,-0.455711 0.23899,-0.708761 -0.05821,-0.01405 -0.11521,-0.04364 -0.174341,-0.0499 z"
     id="path43" />
  <path
     style="fill:none;fill-opacity:1;stroke:#ffffff;stroke-width:0.153817;stroke-linecap:butt;stroke-dasharray:none;stroke-dashoffset:0;stroke-opacity:1;paint-order:normal"
     d="m 70.356418,53.172571 c -5.034942,1.343948 -10.068126,2.698731 -15.102962,4.045267 -1.327899,-1.313555 -2.632882,-2.659028 -3.974952,-3.952811 -0.337857,-0.186635 -0.518475,0.292415 -0.734301,0.471956 -0.585321,0.675769 -1.203848,1.330632 -1.768501,2.019419 -0.154559,0.341802 0.308086,0.529849 0.475504,0.768773 1.005713,0.981456 1.958054,2.021025 3.01045,2.952832 0.305128,0.253963 0.689385,-0.05529 1.019818,-0.08673 5.244222,-1.40947 10.490039,-2.812923 15.735324,-4.218901 0.468241,-0.357629 0.850381,-0.82891 1.274971,-1.241144 0.173974,-0.181544 0.509945,-0.455711 0.23899,-0.708761 -0.05821,-0.01405 -0.11521,-0.04364 -0.174341,-0.0499 z"
     id="path44" />
  <path
     style="fill:none;fill-opacity:1;stroke:#ffffff;stroke-width:0.153817;stroke-linecap:butt;stroke-dasharray:none;stroke-dashoffset:0;stroke-opacity:1;paint-order:normal"
     d="m 70.356418,53.172571 c -5.034942,1.343948 -10.068126,2.698731 -15.102962,4.045267 -1.327899,-1.313555 -2.632882,-2.659028 -3.974952,-3.952811 -0.337857,-0.186635 -0.518475,0.292415 -0.734301,0.471956 -0.585321,0.675769 -1.203848,1.330632 -1.768501,2.019419 -0.154559,0.341802 0.308086,0.529849 0.475504,0.768773 1.005713,0.981456 1.958054,2.021025 3.01045,2.952832 0.305128,0.253963 0.689385,-0.05529 1.019818,-0.08673 5.244222,-1.40947 10.490039,-2.812923 15.735324,-4.218901 0.468241,-0.357629 0.850381,-0.82891 1.274971,-1.241144 0.173974,-0.181544 0.509945,-0.455711 0.23899,-0.708761 -0.05821,-0.01405 -0.11521,-0.04364 -0.174341,-0.0499 z"
     id="path45" />
</svg>
